<!DOCTYPE svg PUBLIC "-//W3C//DTD SVG 1.1//EN" "http://www.w3.org/Graphics/SVG/1.1/DTD/svg11.dtd">
<!-- Uploaded to: SVG Repo, www.svgrepo.com, Transformed by: SVG Repo Mixer Tools -->
<svg fill="#577cff" height="800px" width="800px" version="1.1" id="Capa_1" xmlns="http://www.w3.org/2000/svg" xmlns:xlink="http://www.w3.org/1999/xlink" viewBox="0 0 297 297" xml:space="preserve">
<g id="SVGRepo_bgCarrier" stroke-width="0"/>
<g id="SVGRepo_tracerCarrier" stroke-linecap="round" stroke-linejoin="round"/>
<g id="SVGRepo_iconCarrier"> <g> <path d="M263.133,3.461C261.198,1.261,258.41,0,255.481,0H41.519c-2.929,0-5.717,1.261-7.651,3.461s-2.828,5.125-2.454,8.031 l35.66,276.623c0.655,5.081,4.982,8.886,10.105,8.886h142.642c5.123,0,9.45-3.805,10.105-8.886l35.66-276.623 C265.96,8.586,265.067,5.66,263.133,3.461z M243.895,20.377l-6.567,50.943H59.673l-6.567-50.943H243.895z M210.861,276.623H86.139 L62.3,91.698h50.641c0.619,4.319,4.324,7.642,8.814,7.642c4.49,0,8.194-3.323,8.814-7.642H234.7L210.861,276.623z"/> <path d="M148.5,191.038c-9.457,0-18.349,3.683-25.036,10.37c-6.686,6.687-10.37,15.579-10.37,25.036 c0,9.457,3.683,18.349,10.37,25.036c6.687,6.686,15.579,10.37,25.036,10.37s18.349-3.683,25.036-10.37 c6.686-6.687,10.37-15.579,10.37-25.036c0-9.457-3.683-18.349-10.37-25.036C166.849,194.721,157.957,191.038,148.5,191.038z M161.288,239.231c-3.416,3.416-7.957,5.297-12.788,5.297s-9.372-1.882-12.788-5.297c-3.416-3.416-5.297-7.957-5.297-12.788 c0-4.831,1.882-9.372,5.297-12.788c3.416-3.416,7.957-5.297,12.788-5.297s9.372,1.882,12.788,5.297 c3.416,3.416,5.297,7.957,5.297,12.788C166.585,231.274,164.703,235.815,161.288,239.231z"/> <circle cx="121.755" cy="143.915" r="8.915"/> <circle cx="175.245" cy="108.255" r="8.915"/> <circle cx="157.415" cy="178.047" r="8.915"/> </g> </g>
</svg>