<!DOCTYPE svg PUBLIC "-//W3C//DTD SVG 1.1//EN" "http://www.w3.org/Graphics/SVG/1.1/DTD/svg11.dtd">
<!-- Uploaded to: SVG Repo, www.svgrepo.com, Transformed by: SVG Repo Mixer Tools -->
<svg fill="#467af6" height="800px" width="800px" version="1.1" id="Capa_1" xmlns="http://www.w3.org/2000/svg" xmlns:xlink="http://www.w3.org/1999/xlink" viewBox="0 0 164.945 164.945" xml:space="preserve">
<g id="SVGRepo_bgCarrier" stroke-width="0"/>
<g id="SVGRepo_tracerCarrier" stroke-linecap="round" stroke-linejoin="round"/>
<g id="SVGRepo_iconCarrier"> <g> <path d="M117.264,0H47.682c-12.05,0-21.853,9.803-21.853,21.853v121.24c0,12.049,9.803,21.853,21.853,21.853h69.582 c12.05,0,21.853-9.803,21.853-21.853V21.853C139.116,9.803,129.313,0,117.264,0z M129.116,143.093 c0,6.536-5.317,11.853-11.853,11.853H47.682c-6.535,0-11.853-5.317-11.853-11.853V21.853C35.829,15.317,41.146,10,47.682,10h69.582 c6.535,0,11.853,5.317,11.853,11.853V143.093z"/> <path d="M64.036,22.686c-7.209,0-13.074,5.865-13.074,13.074s5.865,13.074,13.074,13.074s13.073-5.865,13.073-13.074 S71.245,22.686,64.036,22.686z"/> <path d="M100.909,22.686c-7.209,0-13.073,5.865-13.073,13.074s5.864,13.074,13.073,13.074s13.074-5.865,13.074-13.074 S108.118,22.686,100.909,22.686z"/> <path d="M64.036,53.85c-7.209,0-13.074,5.865-13.074,13.074s5.865,13.074,13.074,13.074s13.073-5.865,13.073-13.074 S71.245,53.85,64.036,53.85z"/> <path d="M100.909,53.85c-7.209,0-13.073,5.865-13.073,13.074s5.864,13.074,13.073,13.074s13.074-5.865,13.074-13.074 S108.118,53.85,100.909,53.85z M100.909,73.997c-3.9,0-7.073-3.173-7.073-7.074s3.173-7.074,7.073-7.074s7.074,3.173,7.074,7.074 S104.81,73.997,100.909,73.997z"/> <path d="M64.036,85.013c-7.209,0-13.074,5.865-13.074,13.074s5.865,13.074,13.074,13.074s13.073-5.865,13.073-13.074 S71.245,85.013,64.036,85.013z"/> <path d="M100.909,85.013c-7.209,0-13.073,5.865-13.073,13.074s5.864,13.074,13.073,13.074s13.074-5.865,13.074-13.074 S108.118,85.013,100.909,85.013z M100.909,105.161c-3.9,0-7.073-3.173-7.073-7.074c0-3.9,3.173-7.074,7.073-7.074 s7.074,3.173,7.074,7.074C107.983,101.987,104.81,105.161,100.909,105.161z"/> <path d="M64.036,116.176c-7.209,0-13.074,5.865-13.074,13.074s5.865,13.074,13.074,13.074s13.073-5.865,13.073-13.074 S71.245,116.176,64.036,116.176z M64.036,136.324c-3.9,0-7.074-3.173-7.074-7.074s3.174-7.074,7.074-7.074s7.073,3.173,7.073,7.074 S67.937,136.324,64.036,136.324z"/> <path d="M100.909,116.176c-7.209,0-13.073,5.865-13.073,13.074s5.864,13.074,13.073,13.074s13.074-5.865,13.074-13.074 S108.118,116.176,100.909,116.176z M100.909,136.324c-3.9,0-7.073-3.173-7.073-7.074s3.173-7.074,7.073-7.074 s7.074,3.173,7.074,7.074S104.81,136.324,100.909,136.324z"/> </g> </g>
</svg>