<svg width="269" height="50" viewBox="0 0 269 50" fill="none" xmlns="http://www.w3.org/2000/svg">
<path d="M59.61 37V32.886H65.696C67.2373 32.886 68.586 32.5687 69.742 31.934C70.898 31.2767 71.7933 30.3587 72.428 29.18C73.0853 28.0013 73.414 26.6073 73.414 24.998C73.414 23.434 73.0853 22.074 72.428 20.918C71.7707 19.7393 70.864 18.8327 69.708 18.198C68.552 17.5407 67.2147 17.212 65.696 17.212H59.508V13.098H65.764C67.532 13.098 69.164 13.3927 70.66 13.982C72.1787 14.5713 73.4933 15.41 74.604 16.498C75.7373 17.5633 76.61 18.8213 77.222 20.272C77.8567 21.7227 78.174 23.3093 78.174 25.032C78.174 26.7547 77.8567 28.3527 77.222 29.826C76.61 31.2767 75.7487 32.546 74.638 33.634C73.5273 34.6993 72.2127 35.5267 70.694 36.116C69.198 36.7053 67.5773 37 65.832 37H59.61ZM56.448 37V13.098H61.072V37H56.448ZM81.3724 37V20.578H85.8264V37H81.3724ZM85.8264 27.922L84.0924 26.766C84.2964 24.7487 84.8857 23.162 85.8604 22.006C86.8351 20.8273 88.2404 20.238 90.0764 20.238C90.8697 20.238 91.5837 20.374 92.2184 20.646C92.8531 20.8953 93.4311 21.3147 93.9524 21.904L91.1644 25.1C90.9151 24.828 90.6091 24.624 90.2464 24.488C89.9064 24.352 89.5097 24.284 89.0564 24.284C88.1044 24.284 87.3224 24.59 86.7104 25.202C86.1211 25.7913 85.8264 26.698 85.8264 27.922ZM96.5183 37.34C95.7023 37.34 95.0337 37.068 94.5123 36.524C93.991 35.98 93.7303 35.3113 93.7303 34.518C93.7303 33.7247 93.991 33.056 94.5123 32.512C95.0337 31.968 95.7023 31.696 96.5183 31.696C97.3117 31.696 97.969 31.968 98.4903 32.512C99.0117 33.056 99.2723 33.7247 99.2723 34.518C99.2723 35.3113 99.0117 35.98 98.4903 36.524C97.969 37.068 97.3117 37.34 96.5183 37.34ZM107.362 28.126V24.352H112.904C113.629 24.352 114.286 24.2047 114.876 23.91C115.465 23.6153 115.93 23.196 116.27 22.652C116.61 22.0853 116.78 21.4053 116.78 20.612C116.78 19.8413 116.61 19.1727 116.27 18.606C115.93 18.0393 115.465 17.6087 114.876 17.314C114.286 17.0193 113.629 16.872 112.904 16.872H107.362V13.098H113.38C114.898 13.098 116.258 13.404 117.46 14.016C118.684 14.628 119.647 15.5007 120.35 16.634C121.052 17.7447 121.404 19.0707 121.404 20.612C121.404 22.1533 121.052 23.4907 120.35 24.624C119.647 25.7347 118.684 26.596 117.46 27.208C116.258 27.82 114.898 28.126 113.38 28.126H107.362ZM103.962 37V13.098H108.586V37H103.962ZM135.487 37V27.582C135.487 26.6073 135.181 25.814 134.569 25.202C133.957 24.59 133.164 24.284 132.189 24.284C131.554 24.284 130.988 24.42 130.489 24.692C129.99 24.964 129.594 25.3493 129.299 25.848C129.027 26.3467 128.891 26.9247 128.891 27.582L127.157 26.698C127.157 25.406 127.429 24.284 127.973 23.332C128.517 22.3573 129.265 21.598 130.217 21.054C131.192 20.51 132.302 20.238 133.549 20.238C134.796 20.238 135.895 20.51 136.847 21.054C137.822 21.598 138.581 22.346 139.125 23.298C139.669 24.25 139.941 25.3493 139.941 26.596V37H135.487ZM124.437 37V12.418H128.891V37H124.437ZM150.397 37.34C148.901 37.34 147.552 36.966 146.351 36.218C145.149 35.47 144.209 34.45 143.529 33.158C142.849 31.866 142.509 30.4153 142.509 28.806C142.509 27.174 142.849 25.712 143.529 24.42C144.209 23.128 145.149 22.108 146.351 21.36C147.552 20.612 148.901 20.238 150.397 20.238C151.575 20.238 152.629 20.476 153.559 20.952C154.488 21.428 155.225 22.0967 155.769 22.958C156.335 23.7967 156.641 24.7487 156.687 25.814V31.73C156.641 32.818 156.335 33.7813 155.769 34.62C155.225 35.4587 154.488 36.1273 153.559 36.626C152.629 37.102 151.575 37.34 150.397 37.34ZM151.213 33.226C152.459 33.226 153.468 32.818 154.239 32.002C155.009 31.1633 155.395 30.0867 155.395 28.772C155.395 27.9107 155.213 27.1513 154.851 26.494C154.511 25.814 154.023 25.2927 153.389 24.93C152.777 24.5447 152.051 24.352 151.213 24.352C150.397 24.352 149.671 24.5447 149.037 24.93C148.425 25.2927 147.937 25.814 147.575 26.494C147.235 27.1513 147.065 27.9107 147.065 28.772C147.065 29.656 147.235 30.438 147.575 31.118C147.937 31.7753 148.425 32.2967 149.037 32.682C149.671 33.0447 150.397 33.226 151.213 33.226ZM155.157 37V32.58L155.871 28.568L155.157 24.624V20.578H159.577V37H155.157ZM163.517 37V20.578H167.971V37H163.517ZM167.971 27.922L166.237 26.766C166.441 24.7487 167.03 23.162 168.005 22.006C168.98 20.8273 170.385 20.238 172.221 20.238C173.014 20.238 173.728 20.374 174.363 20.646C174.998 20.8953 175.576 21.3147 176.097 21.904L173.309 25.1C173.06 24.828 172.754 24.624 172.391 24.488C172.051 24.352 171.654 24.284 171.201 24.284C170.249 24.284 169.467 24.59 168.855 25.202C168.266 25.7913 167.971 26.698 167.971 27.922ZM177.595 37V20.578H182.049V37H177.595ZM188.305 37V27.31C188.305 26.358 187.999 25.6213 187.387 25.1C186.798 24.556 186.061 24.284 185.177 24.284C184.588 24.284 184.055 24.4087 183.579 24.658C183.103 24.8847 182.729 25.2247 182.457 25.678C182.185 26.1313 182.049 26.6753 182.049 27.31L180.315 26.46C180.315 25.1907 180.587 24.0913 181.131 23.162C181.698 22.2327 182.457 21.5187 183.409 21.02C184.361 20.4987 185.438 20.238 186.639 20.238C187.772 20.238 188.804 20.4987 189.733 21.02C190.662 21.5187 191.399 22.2327 191.943 23.162C192.487 24.0687 192.759 25.168 192.759 26.46V37H188.305ZM199.015 37V27.31C199.015 26.358 198.709 25.6213 198.097 25.1C197.508 24.556 196.771 24.284 195.887 24.284C195.32 24.284 194.788 24.4087 194.289 24.658C193.813 24.8847 193.439 25.2247 193.167 25.678C192.895 26.1313 192.759 26.6753 192.759 27.31L190.209 26.698C190.3 25.3833 190.651 24.25 191.263 23.298C191.875 22.3233 192.68 21.5753 193.677 21.054C194.674 20.51 195.785 20.238 197.009 20.238C198.233 20.238 199.332 20.4987 200.307 21.02C201.282 21.5187 202.052 22.244 202.619 23.196C203.186 24.148 203.469 25.2813 203.469 26.596V37H199.015ZM214.933 37.34C213.211 37.34 211.681 36.9773 210.343 36.252C209.006 35.504 207.941 34.484 207.147 33.192C206.377 31.9 205.991 30.4267 205.991 28.772C205.991 27.14 206.365 25.6893 207.113 24.42C207.884 23.128 208.927 22.108 210.241 21.36C211.556 20.5893 213.018 20.204 214.627 20.204C216.214 20.204 217.608 20.5667 218.809 21.292C220.033 21.9947 220.985 22.9693 221.665 24.216C222.368 25.44 222.719 26.834 222.719 28.398C222.719 28.6927 222.697 28.9987 222.651 29.316C222.629 29.6107 222.572 29.9507 222.481 30.336L208.677 30.37V27.038L220.407 27.004L218.605 28.398C218.56 27.4233 218.379 26.6073 218.061 25.95C217.767 25.2927 217.325 24.794 216.735 24.454C216.169 24.0913 215.466 23.91 214.627 23.91C213.743 23.91 212.973 24.114 212.315 24.522C211.658 24.9073 211.148 25.4627 210.785 26.188C210.445 26.8907 210.275 27.7293 210.275 28.704C210.275 29.7013 210.457 30.574 210.819 31.322C211.205 32.0473 211.749 32.614 212.451 33.022C213.154 33.4073 213.97 33.6 214.899 33.6C215.738 33.6 216.497 33.464 217.177 33.192C217.857 32.8973 218.447 32.4667 218.945 31.9L221.563 34.518C220.77 35.4473 219.795 36.15 218.639 36.626C217.506 37.102 216.271 37.34 214.933 37.34ZM232.41 37.34C230.891 37.34 229.531 36.966 228.33 36.218C227.129 35.47 226.177 34.45 225.474 33.158C224.794 31.866 224.454 30.4153 224.454 28.806C224.454 27.174 224.794 25.712 225.474 24.42C226.177 23.128 227.117 22.108 228.296 21.36C229.497 20.612 230.869 20.238 232.41 20.238C233.589 20.238 234.643 20.476 235.572 20.952C236.524 21.428 237.283 22.0967 237.85 22.958C238.439 23.7967 238.757 24.7487 238.802 25.814V31.662C238.757 32.7273 238.451 33.6907 237.884 34.552C237.317 35.4133 236.558 36.0933 235.606 36.592C234.654 37.0907 233.589 37.34 232.41 37.34ZM233.158 33.226C233.997 33.226 234.722 33.0447 235.334 32.682C235.969 32.2967 236.456 31.7753 236.796 31.118C237.159 30.438 237.34 29.656 237.34 28.772C237.34 27.9107 237.159 27.1513 236.796 26.494C236.456 25.814 235.969 25.2927 235.334 24.93C234.722 24.5447 234.008 24.352 233.192 24.352C232.353 24.352 231.617 24.5447 230.982 24.93C230.37 25.3153 229.883 25.8367 229.52 26.494C229.18 27.1513 229.01 27.9107 229.01 28.772C229.01 29.656 229.18 30.438 229.52 31.118C229.883 31.7753 230.381 32.2967 231.016 32.682C231.651 33.0447 232.365 33.226 233.158 33.226ZM241.522 37H237.102V32.58L237.816 28.568L237.068 24.624V12.418H241.522V37ZM245.462 37V20.578H249.95V37H245.462ZM247.706 17.926C246.981 17.926 246.38 17.688 245.904 17.212C245.428 16.7133 245.19 16.1013 245.19 15.376C245.19 14.6733 245.428 14.0727 245.904 13.574C246.38 13.0753 246.981 12.826 247.706 12.826C248.454 12.826 249.055 13.0753 249.508 13.574C249.984 14.0727 250.222 14.6733 250.222 15.376C250.222 16.1013 249.984 16.7133 249.508 17.212C249.055 17.688 248.454 17.926 247.706 17.926ZM261.648 37.34C259.97 37.34 258.463 36.966 257.126 36.218C255.788 35.47 254.734 34.45 253.964 33.158C253.193 31.866 252.808 30.4153 252.808 28.806C252.808 27.174 253.193 25.712 253.964 24.42C254.734 23.128 255.788 22.108 257.126 21.36C258.486 20.5893 259.993 20.204 261.648 20.204C262.94 20.204 264.13 20.442 265.218 20.918C266.306 21.394 267.246 22.074 268.04 22.958L265.184 25.848C264.753 25.372 264.232 25.0093 263.62 24.76C263.03 24.5107 262.373 24.386 261.648 24.386C260.832 24.386 260.095 24.5787 259.438 24.964C258.803 25.3267 258.293 25.8367 257.908 26.494C257.545 27.1287 257.364 27.888 257.364 28.772C257.364 29.6333 257.545 30.404 257.908 31.084C258.293 31.7413 258.803 32.2627 259.438 32.648C260.095 33.0107 260.832 33.192 261.648 33.192C262.396 33.192 263.064 33.0673 263.654 32.818C264.266 32.546 264.787 32.1607 265.218 31.662L268.108 34.552C267.269 35.4587 266.306 36.15 265.218 36.626C264.13 37.102 262.94 37.34 261.648 37.34Z" fill="#000B6D"/>
<g clip-path="url(#clip0_115126_11)">
<path d="M40.0625 49.9999H6.9375C6.05897 49.9999 5.21642 49.6707 4.59521 49.0846C3.97399 48.4986 3.625 47.7037 3.625 46.8749V41.6666C3.64418 37.6429 5.02583 33.7304 7.56834 30.4997C10.1109 27.2691 13.6812 24.8896 17.7583 23.7083L19.0833 27.6978C15.9026 28.608 13.1144 30.4553 11.1274 32.9691C9.14037 35.4829 8.05898 38.5309 8.04167 41.6666V45.8333H38.9583V41.6666C38.9743 38.5363 37.9161 35.4852 35.9418 32.9693C33.9675 30.4534 31.1832 28.6077 28.005 27.7083L29.2858 23.7187C33.3733 24.8746 36.9544 27.2474 39.4939 30.4825C42.0334 33.7175 43.395 37.641 43.375 41.6666V46.8749C43.375 47.7037 43.026 48.4986 42.4048 49.0846C41.7836 49.6707 40.941 49.9999 40.0625 49.9999Z" fill="#5F6FFF" stroke="#5F6FFF" stroke-width="1.33333"/>
<path d="M23.4998 29.1667H22.6827C19.5629 28.924 16.6574 27.5722 14.5541 25.3849C12.4508 23.1977 11.3069 20.3383 11.3539 17.3854V3.125C11.3539 2.2962 11.7029 1.50134 12.3241 0.915291C12.9454 0.32924 13.7879 0 14.6664 0L32.3331 0C33.2116 0 34.0542 0.32924 34.6754 0.915291C35.2966 1.50134 35.6456 2.2962 35.6456 3.125V17.7083C35.6414 19.2712 35.2983 20.8166 34.6375 22.2497C33.9767 23.6828 33.0121 24.9733 31.8031 26.0417C29.5639 28.0513 26.5904 29.1704 23.4998 29.1667ZM15.7706 4.16667V17.3854C15.726 19.2803 16.4457 21.1205 17.7841 22.534C19.1226 23.9475 20.9799 24.8289 22.9808 25C24.0386 25.0672 25.0997 24.9283 26.0982 24.592C27.0967 24.2558 28.0112 23.7293 28.7848 23.0454C29.5584 22.3615 30.1746 21.5348 30.5951 20.6166C31.0156 19.6985 31.2313 18.7085 31.2289 17.7083V4.16667H15.7706Z" fill="#5F6FFF" stroke="#5F6FFF" stroke-width="1.33333"/>
<path d="M33.4375 10.4167H13.5625V14.5834H33.4375V10.4167Z" fill="#5F6FFF" stroke="#5F6FFF" stroke-width="1.33333"/>
<path d="M17.979 35.4166V39.5833H29.0207V35.4166H17.979Z" fill="#5F6FFF" stroke="#5F6FFF" stroke-width="1.33333"/>
<path d="M21.2918 42.7083H25.7085V32.2916H21.2918V42.7083Z" fill="#5F6FFF" stroke="#5F6FFF" stroke-width="1.33333"/>
</g>
<defs>
<clipPath id="clip0_115126_11">
<rect width="53" height="50" fill="white"/>
</clipPath>
</defs>
</svg>
