<!DOCTYPE svg PUBLIC "-//W3C//DTD SVG 1.1//EN" "http://www.w3.org/Graphics/SVG/1.1/DTD/svg11.dtd">
<!-- Uploaded to: SVG Repo, www.svgrepo.com, Transformed by: SVG Repo Mixer Tools -->
<svg width="64px" height="64px" viewBox="0 0 48 48" xmlns="http://www.w3.org/2000/svg" fill="#5F6FFF" stroke="#5F6FFF">
<g id="SVGRepo_bgCarrier" stroke-width="0"/>
<g id="SVGRepo_tracerCarrier" stroke-linecap="round" stroke-linejoin="round"/>
<g id="SVGRepo_iconCarrier">
<title>Free Medical icons</title>
<path d="M39,48H9a3,3,0,0,1-3-3V40A18.12,18.12,0,0,1,18.8,22.76L20,26.59A14.09,14.09,0,0,0,10,40v4H38V40a13.92,13.92,0,0,0-9.92-13.4l1.16-3.83A17.9,17.9,0,0,1,42,40v5A3,3,0,0,1,39,48Z" fill="#5F6FFF"/>
<path d="M24,28l-0.74,0A11.18,11.18,0,0,1,13,16.69V3a3,3,0,0,1,3-3H32a3,3,0,0,1,3,3V17a11,11,0,0,1-3.48,8A10.89,10.89,0,0,1,24,28ZM17,4V16.69A7.18,7.18,0,0,0,23.53,24,7,7,0,0,0,31,17V4H17Z" fill="#5F6FFF"/>
<rect x="15" y="10" width="18" height="4" fill="#5F6FFF"/>
<rect x="22" y="31" width="4" height="10" transform="translate(-12 60) rotate(-90)" fill="#5F6FFF"/>
<rect x="22" y="31" width="4" height="10" transform="translate(48 72) rotate(-180)" fill="#5F6FFF"/>
</g>
</svg>